<!--?xml version="1.0" encoding="utf-8"?-->
<!-- Generator: Adobe Illustrator 18.1.1, SVG Export Plug-In . SVG Version: 6.00 Build 0)  -->

<svg version="1.1" id="_x31_0" xmlns="http://www.w3.org/2000/svg" xmlns:xlink="http://www.w3.org/1999/xlink" x="0px" y="0px" viewBox="0 0 512 512" style="width: 128px; height: 128px; opacity: 1;" xml:space="preserve">
<style type="text/css">
	.st0{fill:#69bc69;}
</style>
<g>
	<path class="st0" d="M497.328,100.502c-2.008-1.094-50.066-26.457-102.801-26.457c-20.617,0-39.484,3.871-56.09,11.496
		c-40.691,18.649-65.106,58.062-78.898,90.176c-1.168-0.184-2.371-0.293-3.539-0.293c-1.207,0-2.375,0.109-3.543,0.293
		c-13.793-32.114-38.206-71.527-78.934-90.176c-16.606-7.625-35.473-11.496-56.05-11.496c-52.844,0-100.797,25.363-102.805,26.457
		L0,108.35l3.614,16.238c0.523,2.289,7.98,34.445,27.469,67.426c0.003,0.004,0.007,0.012,0.011,0.015
		c1.023,1.731,2.078,3.458,3.164,5.184c0.008,0.012,0.012,0.019,0.02,0.031c14.242,22.61,34.25,44.89,61.734,57.481
		c16.57,7.59,35.438,11.457,56.054,11.457c29.054,0,56.461-7.59,75.898-14.754c2.118-0.762,4.207-1.524,6.137-2.266v166.899
		c0,12.078,9.816,21.894,21.898,21.894c12.078,0,21.894-9.817,21.894-21.894V293.986l0.058-44.859
		c19.528,7.73,49.786,17.054,81.981,17.054c20.578,0,39.446-3.867,56.05-11.457c69.778-31.969,91.489-126.157,92.402-130.137
		L512,108.35L497.328,100.502z M402.598,110.783c9.023,0.535,17.82,1.942,26.11,3.766c1.938,0.434,3.863,0.851,5.828,1.355
		c1.637,0.41,3.258,0.836,4.84,1.274c4.473,1.27,8.988,2.664,13.59,4.305c-39.625,29.633-85.652,49.832-133.949,59.086
		c-7.699,1.45-15.454,2.676-23.266,3.555c11.136-24.028,29.586-52.434,57.902-65.41c11.79-5.398,25.547-8.172,40.875-8.172
		c2.688,0,5.371,0.082,8.035,0.242C402.574,110.783,402.582,110.783,402.598,110.783z M286.582,207.099
		c64.699-5.289,127.066-28.972,179.07-67.804c-9.523,25.691-29.488,66.054-64.847,82.258c-11.824,5.402-25.582,8.137-40.91,8.137
		c-30.398,0-59.922-10.692-75.066-17.223C285.34,210.822,285.922,208.998,286.582,207.099z M227.168,212.502
		c-15.106,6.496-44.558,17.188-75.102,17.188c-15.328,0-29.047-2.734-40.871-8.137c-37.48-17.188-57.77-61.821-66.527-86.965
		c52.218,41.019,114.114,65.797,180.566,72.074C225.93,208.744,226.586,210.713,227.168,212.502z M215.785,183.58
		c-43.976-5.715-85.578-20.266-123.179-42.687c-10.508-6.282-20.73-13.074-30.492-20.57c15.422-5.059,35.113-9.782,55.359-9.782
		c15.324,0,29.046,2.774,40.871,8.172c23.48,10.746,40.133,32.297,51.504,53.074C212.035,175.826,214.066,179.81,215.785,183.58z" style="fill: #69bc69;"></path>
</g>
</svg>
